<svg width="100" height="100" viewBox="0 0 100 100" fill="none" xmlns="http://www.w3.org/2000/svg">
<path d="M69.2442 0C69.4769 0 69.7096 0 69.9556 0C70.5264 7.05221 67.8346 12.3216 64.5632 16.1375C61.3533 19.9271 56.9577 23.6025 49.8484 23.0448C49.3742 16.0936 52.0703 11.215 55.3374 7.4079C58.3673 3.85983 63.9221 0.702586 69.2442 0Z" fill="#1B325B"/>
<path d="M90.7654 73.4028C90.7654 73.473 90.7654 73.5345 90.7654 73.6004C88.7674 79.6514 85.9175 84.8374 82.4397 89.6501C79.2649 94.0193 75.3744 99.8991 68.4275 99.8991C62.4248 99.8991 58.4376 96.0392 52.2856 95.9338C45.7779 95.8285 42.1991 99.1614 36.2491 100C35.5684 100 34.8878 100 34.2204 100C29.8511 99.3677 26.325 95.9075 23.7562 92.7898C16.1814 83.5771 10.328 71.677 9.23901 56.4485C9.23901 54.9555 9.23901 53.4669 9.23901 51.9739C9.70009 41.075 14.9958 32.2136 22.0349 27.9191C25.7498 25.6357 30.8567 23.6904 36.5433 24.5598C38.9804 24.9375 41.4702 25.7718 43.6526 26.5974C45.7208 27.3922 48.3072 28.8017 50.7575 28.7271C52.4173 28.6788 54.0684 27.8137 55.7415 27.2033C60.642 25.4337 65.4459 23.405 71.778 24.3579C79.3879 25.5083 84.789 28.8895 88.1263 34.1062C81.6889 38.2032 76.5995 44.3772 77.4689 54.9204C78.2418 64.4975 83.8098 70.1006 90.7654 73.4028Z" fill="#1B325B"/>
</svg>
