<svg width="200" height="200" viewBox="0 0 200 200" fill="none" xmlns="http://www.w3.org/2000/svg">
<g clip-path="url(#clip0)">
<path d="M156.317 95.3899L62.9278 2.00539C61.5914 0.670357 60.0535 3.05176e-05 58.3177 3.05176e-05C56.5812 3.05176e-05 55.044 0.670357 53.7082 2.00539L43.6898 12.0259C42.352 13.3616 41.6859 14.896 41.6859 16.6353C41.6859 18.3747 42.352 19.9091 43.6898 21.2448L122.447 100.002L43.6898 178.761C42.352 180.097 41.6859 181.634 41.6859 183.368C41.6859 185.107 42.352 186.644 43.6898 187.98L53.7089 197.997C55.0447 199.334 56.5819 200 58.3184 200C60.0542 200 61.5914 199.333 62.9278 197.997L156.312 104.612C157.647 103.277 158.315 101.739 158.315 100.002C158.315 98.2656 157.652 96.7284 156.317 95.3899Z" fill="#494949"/>
</g>
<defs>
<clipPath id="clip0">
<rect width="199.999" height="200" fill="white"/>
</clipPath>
</defs>
</svg>
