<svg width="20" height="20" viewBox="0 0 20 20" fill="none" xmlns="http://www.w3.org/2000/svg">
<g clip-path="url(#clip0)">
<path d="M11.8323 10.0163L19.6199 2.22849C20.1267 1.72193 20.1267 0.902879 19.6199 0.396313C19.1134 -0.110254 18.2943 -0.110254 17.7877 0.396313L9.99989 8.18415L2.21229 0.396313C1.70548 -0.110254 0.88667 -0.110254 0.380103 0.396313C-0.126701 0.902879 -0.126701 1.72193 0.380103 2.22849L8.16771 10.0163L0.380103 17.8042C-0.126701 18.3107 -0.126701 19.1298 0.380103 19.6363C0.632556 19.889 0.964494 20.016 1.29619 20.016C1.6279 20.016 1.9596 19.889 2.21229 19.6363L9.99989 11.8485L17.7877 19.6363C18.0404 19.889 18.3721 20.016 18.7038 20.016C19.0355 20.016 19.3672 19.889 19.6199 19.6363C20.1267 19.1298 20.1267 18.3107 19.6199 17.8042L11.8323 10.0163Z" fill="#494949"/>
</g>
<defs>
<clipPath id="clip0">
<rect width="20" height="20" fill="white"/>
</clipPath>
</defs>
</svg>
