<svg width="300" height="300" viewBox="0 0 300 300" fill="none" xmlns="http://www.w3.org/2000/svg">
<g clip-path="url(#clip0)">
<path d="M196.289 292.225C191.468 292.225 186.952 289.228 185.246 284.425C183.08 278.326 186.268 271.626 192.367 269.46C242.727 251.575 276.562 203.631 276.562 150.159C276.562 97.2006 243.158 49.4121 193.439 31.2451C187.36 29.0238 184.233 22.2955 186.454 16.2164C188.675 10.1379 195.401 7.00841 201.483 9.23146C230.081 19.6811 254.566 38.3707 272.292 63.2801C290.418 88.7526 300 118.795 300 150.159C300 213.529 259.898 270.348 200.211 291.546C198.915 292.006 197.59 292.225 196.289 292.225ZM150.639 290.81C157.68 284.838 161.719 276.12 161.719 266.893V33.1067C161.719 23.8793 157.68 15.1623 150.639 9.18986C143.618 3.23498 134.391 0.682047 125.324 2.18088C90.6785 7.91252 58.9564 25.8223 36.0012 52.6102C12.7852 79.7039 0 114.291 0 150C0 185.709 12.7852 220.296 36.0012 247.389C58.9564 274.178 90.6779 292.088 125.323 297.819C127.027 298.1 128.735 298.239 130.434 298.239C137.78 298.239 144.937 295.646 150.639 290.81ZM135.478 27.0639C136.549 27.9235 138.281 29.9174 138.281 33.1067V266.893C138.281 270.082 136.525 272.048 135.478 272.936C134.444 273.813 132.243 275.208 129.149 274.695C67.8955 264.563 23.4375 212.12 23.4375 150C23.4375 87.8801 67.8955 35.4375 129.149 25.3043C129.609 25.2281 132.422 24.6094 135.478 27.0639V27.0639Z" fill="#AAAAAA"/>
</g>
<defs>
<clipPath id="clip0">
<rect width="300" height="300" fill="white"/>
</clipPath>
</defs>
</svg>
