<svg width="300" height="300" viewBox="0 0 300 300" fill="none" xmlns="http://www.w3.org/2000/svg">
<path d="M150 0C67.2938 0 0 67.2938 0 150C0 232.706 67.2938 300 150 300C232.706 300 300 232.706 300 150C300 67.2938 232.706 0 150 0ZM256.2 73.1813C240.037 79.5938 223.425 84.675 206.381 88.0125C199.144 64.1812 187.65 41.3625 171.863 20.7188C206.438 26.5688 236.4 45.9 256.2 73.1813ZM192.45 190.875C164.287 187.013 135.694 187.013 107.531 190.875C101.756 163.988 101.737 136.163 107.494 109.256C121.481 111.169 135.619 112.5 150 112.5C164.381 112.5 178.5 111.169 192.487 109.256C198.244 136.163 198.225 163.988 192.45 190.875ZM187.594 90.9187C162.638 94.1437 137.344 94.1437 112.387 90.9187C120.075 66.8062 132.638 43.95 150 23.7C167.362 43.95 179.906 66.8062 187.594 90.9187ZM128.1 20.7188C112.312 41.3625 100.838 64.1812 93.6 88.0125C76.575 84.675 59.9625 79.5938 43.8 73.1813C63.5812 45.9 93.5437 26.5688 128.1 20.7188ZM18.75 150C18.75 128.137 24.2063 107.55 33.6938 89.4C51.6188 96.7688 70.0125 102.562 88.9313 106.369C82.9125 135.187 82.9125 164.944 88.95 193.781C70.05 197.55 51.5813 203.306 33.6938 210.656C24.2063 192.469 18.75 171.881 18.75 150ZM43.8 226.819C59.9625 220.406 76.575 215.325 93.6 211.987C100.838 235.819 112.331 258.638 128.119 279.281C93.5438 273.431 63.5812 254.1 43.8 226.819ZM112.406 209.081C137.344 205.856 162.638 205.856 187.594 209.081C179.906 233.194 167.344 256.05 150 276.3C132.638 256.05 120.094 233.194 112.406 209.081ZM171.863 279.281C187.65 258.638 199.144 235.819 206.381 211.987C223.406 215.325 240.037 220.425 256.2 226.819C236.4 254.1 206.438 273.431 171.863 279.281ZM211.031 193.744C217.069 164.925 217.087 135.169 211.05 106.35C229.969 102.544 248.381 96.7688 266.306 89.3813C275.794 107.55 281.25 128.137 281.25 150C281.25 171.881 275.794 192.469 266.306 210.619C248.419 203.287 229.95 197.531 211.031 193.744Z" fill="#146A1F"/>
</svg>
