<svg width="350" height="350" viewBox="0 0 350 350" fill="none" xmlns="http://www.w3.org/2000/svg">
<path d="M175 130.772V149.453L29.1782 73.8602L36.3533 61.438C37.5336 59.3899 39.9315 58.3725 42.2253 58.9493L110.232 75.9857C139.141 83.2302 163.061 103.463 175 130.772Z" fill="#EBE1DC"/>
<path d="M175 169.283L12.0671 84.8217C10.0617 83.783 9.27927 81.3129 10.318 79.3049L14.6546 70.9415C15.696 68.9362 18.1633 68.1511 20.1714 69.1925L175 149.453V169.283Z" fill="#B1DFA1"/>
<path d="M339.682 79.3049L335.345 70.9415C334.304 68.9362 331.837 68.1511 329.829 69.1925L189.318 142.03V161.86L337.933 84.8217C339.938 83.783 340.723 81.3129 339.682 79.3049Z" fill="#B1DFA1"/>
<path d="M175 208.744L42.5537 291.401C41.9769 291.764 41.2132 291.537 40.9248 290.917C35.7338 279.739 39.1277 266.449 49.0425 259.127L57.3151 253.018C62.7998 248.129 66.4368 241.501 67.6144 234.248C68.6504 227.861 72.6505 222.339 78.3943 219.361L140.46 187.187L175 208.744ZM348.16 85.0674L348.024 84.827C346.721 82.5733 343.877 81.7402 341.565 82.9392L189.318 161.86V176.704L209.54 187.187L343.546 103.556C349.816 99.6445 351.856 91.4654 348.16 85.0674Z" fill="#1C231C"/>
<path d="M175 208.744L6.45407 103.556C0.184234 99.6445 -1.85587 91.4681 1.83981 85.0674L1.976 84.827C3.2791 82.5733 6.12295 81.7402 8.43542 82.9392L175 169.283V208.744ZM300.957 259.127L292.685 253.018C287.2 248.129 283.561 241.501 282.386 234.248C281.35 227.861 277.349 222.339 271.606 219.361L189.318 176.704V217.679L307.446 291.401C308.023 291.764 308.787 291.537 309.075 290.917C314.266 279.739 310.872 266.449 300.957 259.127Z" fill="#29352B"/>
<path d="M186.864 105.111C184.052 108.456 181.459 111.984 179.107 115.666C176.386 119.92 175 124.892 175 129.942V258.468C175 259.061 175.678 259.394 176.148 259.037L180.06 256.067C181.302 255.125 183.019 255.125 184.261 256.067L188.173 259.037C188.643 259.394 189.318 259.061 189.318 258.468V106.013C189.318 104.721 187.697 104.12 186.864 105.111Z" fill="#FF982F"/>
<path d="M189.318 142.03L320.822 73.8628L313.647 61.438C312.466 59.3899 310.069 58.3752 307.775 58.9493L239.768 75.9884C219.802 80.9898 202.221 92.189 189.318 107.634V142.03Z" fill="#DCD2CD"/>
<path d="M175 140.193C154.359 111.976 124.636 91.9193 90.5281 83.3744C87.6976 82.6641 84.8297 84.3838 84.1194 87.2143C83.4118 90.0421 85.1288 92.9127 87.9593 93.6203C118.74 101.332 145.675 119.124 164.778 144.153L175 149.453V140.193Z" fill="#146C20"/>
<path d="M189.318 137.143C207.791 117.041 231.543 102.913 258.025 96.2772C260.855 95.5669 262.575 92.6991 261.865 89.8712C261.157 87.0407 258.289 85.3211 255.459 86.0313C230.558 92.2691 207.901 104.667 189.318 122.131V137.143Z" fill="#146C20"/>
</svg>
