<svg width="300" height="300" viewBox="0 0 300 300" fill="none" xmlns="http://www.w3.org/2000/svg">
<path d="M291.211 40.4297H246.68V31.0547C246.68 16.5158 234.851 4.6875 220.312 4.6875H202.734C197.88 4.6875 193.945 8.62266 193.945 13.4766V40.4297H8.78906C3.93516 40.4297 0 44.3648 0 49.2188V260.156C0 265.01 3.93516 268.945 8.78906 268.945H123.604C133.195 268.945 141.182 276.708 141.182 286.523C141.182 291.312 145.037 295.312 150.005 295.312C154.857 295.31 158.789 291.376 158.789 286.523V285.538C159.302 276.302 166.976 268.945 176.338 268.945H291.211C296.065 268.945 300 265.01 300 260.156V49.2188C300 44.3648 296.065 40.4297 291.211 40.4297ZM211.523 22.2656H220.312C225.159 22.2656 229.102 26.2084 229.102 31.0547V217.727C222.732 215.461 218.349 216.458 211.523 216.211V22.2656ZM123.604 251.367H17.5781V58.0078H141.211V256.101C136.029 253.092 130.012 251.367 123.604 251.367ZM176.338 251.367C169.949 251.367 163.958 253.089 158.789 256.08V58.0078H193.945V225C193.945 229.854 197.88 233.789 202.734 233.789H220.283C225.129 233.789 229.072 237.732 229.072 242.578C229.072 247.424 225.129 251.367 220.283 251.367C215.342 251.367 180.719 251.367 176.338 251.367ZM282.422 251.367H245.138C247.366 245.085 246.663 258.969 246.68 58.0078H282.422V251.367Z" fill="#AAAAAA"/>
<path d="M114.844 88.4766H44.5312C39.6773 88.4766 35.7422 92.4117 35.7422 97.2656C35.7422 102.12 39.6773 106.055 44.5312 106.055H114.844C119.698 106.055 123.633 102.12 123.633 97.2656C123.633 92.4117 119.698 88.4766 114.844 88.4766Z" fill="#AAAAAA"/>
<path d="M114.844 211.523H44.5312C39.6773 211.523 35.7422 215.459 35.7422 220.312C35.7422 225.166 39.6773 229.102 44.5312 229.102H114.844C119.698 229.102 123.633 225.166 123.633 220.312C123.633 215.459 119.698 211.523 114.844 211.523Z" fill="#AAAAAA"/>
<path d="M107.736 139.086C107.736 141.368 106.323 144.738 105.018 147.347L77.5188 200.172C76.758 201.585 75.3452 202.237 73.4972 202.237C69.0412 202.237 64.5844 199.194 64.5844 195.172C64.5844 194.303 64.6932 193.542 65.2364 192.672L93.606 141.803V134.628H70.8884V143.433C70.8884 146.042 67.4108 147.998 63.7148 147.998C59.9108 147.998 56.758 146.042 56.758 143.433V126.694C56.758 124.52 59.802 122.237 62.954 122.237H101.541C104.258 122.237 107.736 124.52 107.736 126.694V139.086H107.736Z" fill="#AAAAAA"/>
</svg>
