<svg width="101" height="81" viewBox="0 0 101 81" fill="none" xmlns="http://www.w3.org/2000/svg">
<path d="M46.912 49.4C44.752 49.912 42.416 49.912 39.904 49.4C39.552 51.928 39.072 53.52 38.464 54.176C36.656 56.096 34.52 57.04 32.056 57.008C30.024 57.008 28.544 56.448 27.616 55.328C26.704 54.208 26.328 52.864 26.488 51.296C26.664 49.664 27.304 48.184 28.408 46.856C28.616 46.632 28.784 46.576 28.912 46.688C29.056 46.816 29.008 47.048 28.768 47.384C27.552 49.272 27.376 50.872 28.24 52.184C29.024 53.352 30.304 53.936 32.08 53.936C34 53.936 35.808 53.392 37.504 52.304C38.336 51.776 38.792 51.328 38.872 50.96C38.92 50.304 38.456 49.12 37.48 47.408C37.304 47.072 37.248 46.824 37.312 46.664L38.248 44.216C38.424 43.72 38.72 43.84 39.136 44.576L39.976 45.992C40.344 46.232 41.232 46.408 42.64 46.52C43.056 45.912 43.552 45.312 44.128 44.72C44.72 44.128 45.4 43.544 46.168 42.968C47.72 41.8 48.888 41.216 49.672 41.216C50.52 41.216 51.128 41.432 51.496 41.864C51.896 42.344 52.224 42.952 52.48 43.688C52.736 44.44 52.312 45.544 51.208 47C51.8 47.224 52.52 47.384 53.368 47.48C53.704 47.496 53.912 47.864 53.992 48.584C54.056 49.304 54.008 49.792 53.848 50.048C53.72 50.24 53.568 50.344 53.392 50.36C52.112 50.52 50.416 50.056 48.304 48.968C47.856 49.144 47.392 49.288 46.912 49.4ZM48.496 44.624C46.928 44.624 45.392 45.288 43.888 46.616C44.32 46.584 44.816 46.544 45.376 46.496C45.952 46.432 46.584 46.344 47.272 46.232C48.68 46.008 49.672 45.696 50.248 45.296C49.784 44.928 49.2 44.704 48.496 44.624ZM56.2399 46.736C55.9999 45.744 56.1279 45.184 56.6239 45.056C57.0879 44.944 57.4479 45.072 57.7039 45.44C57.7839 45.6 57.8319 45.712 57.8479 45.776C57.8799 45.952 58.2799 46.224 59.0479 46.592C59.8159 46.944 60.2959 47.208 60.4879 47.384C60.6639 47.544 60.7439 47.744 60.7279 47.984C60.6159 48.992 60.4559 49.776 60.2479 50.336C60.1519 50.56 59.9759 50.68 59.7199 50.696C59.4639 50.712 59.2639 50.656 59.1199 50.528C58.3039 49.712 57.6239 49.232 57.0799 49.088C56.5359 48.944 55.7359 49.2 54.6799 49.856C53.5919 50.512 52.9199 50.496 52.6639 49.808C52.2799 48.656 52.3599 47.92 52.9039 47.6C52.9679 47.568 53.0399 47.544 53.1199 47.528C53.1839 47.512 53.2479 47.496 53.3119 47.48C54.2239 47.384 55.1999 47.136 56.2399 46.736ZM57.211 34.76C57.307 34.856 57.371 35 57.403 35.192C57.419 35.272 57.371 35.4 57.259 35.576C57.147 35.752 56.987 35.976 56.779 36.248C56.699 36.36 56.667 36.472 56.683 36.584C56.715 36.696 56.859 38.112 57.115 40.832C57.243 42.192 57.371 43.296 57.499 44.144C57.643 44.992 57.771 45.592 57.883 45.944C58.123 46.648 58.027 47.16 57.595 47.48C57.371 47.64 57.155 47.696 56.947 47.648C56.723 47.6 56.523 47.432 56.347 47.144C55.963 46.424 55.555 43.856 55.123 39.44C55.043 38.544 54.979 37.808 54.931 37.232C54.867 36.64 54.819 36.216 54.787 35.96L54.523 34.88C54.427 34.496 54.443 34.184 54.571 33.944C54.715 33.688 54.843 33.48 54.955 33.32C55.051 33.144 55.131 33.016 55.195 32.936C55.259 32.856 55.331 32.792 55.411 32.744C55.475 32.696 55.539 32.664 55.603 32.648C55.907 32.584 56.107 32.736 56.203 33.104C56.315 33.6 56.651 34.152 57.211 34.76ZM71.251 33.392C71.571 32.704 71.779 32.864 71.875 33.872L72.451 39.728C72.931 44.976 72.819 48.28 72.115 49.64C71.955 49.928 71.803 50.048 71.659 50C71.499 49.952 71.427 49.568 71.443 48.848C71.459 48.24 71.395 47.24 71.251 45.848C71.107 44.44 70.891 42.656 70.603 40.496L70.099 36.512C70.051 36.176 70.099 35.848 70.243 35.528L71.251 33.392Z" fill="#BABCBD"/>
<path d="M64.6045 14.6382L54.1169 2.38456C53.129 1.23091 51.7037 0.569305 50.2057 0.569305C48.7076 0.569305 47.282 1.23091 46.2946 2.38456L35.8068 14.6382H6.91186C3.54486 14.6382 0.805664 17.444 0.805664 20.8929V74.3146C0.805664 77.7635 3.54486 80.5693 6.91186 80.5693H94.6996C98.0665 80.5693 100.806 77.7635 100.806 74.3146V20.8929C100.806 17.444 98.0665 14.6382 94.6996 14.6382H64.6045ZM94.021 73.6196H7.58988V21.5879H36.5241C38.0222 21.5879 39.4479 20.9259 40.4353 19.7722L50.2053 8.35666L59.9747 19.7708C60.9621 20.9254 62.3883 21.5875 63.8867 21.5875H94.0207V73.6196H94.021Z" fill="#BABCBD"/>
</svg>
