<svg width="300" height="300" viewBox="0 0 300 300" fill="none" xmlns="http://www.w3.org/2000/svg">
<path d="M291.746 291.746C280.741 302.751 262.903 302.751 251.897 291.746L202.174 242.021C181.731 255.136 157.566 262.949 131.475 262.949C58.8685 262.949 0 204.089 0 131.474C0 58.8598 58.8685 0 131.475 0C204.091 0 262.95 58.8586 262.95 131.474C262.95 157.557 255.127 181.731 242.021 202.183L291.746 251.907C302.751 262.912 302.751 280.741 291.746 291.746ZM131.475 37.5639C79.6131 37.5639 37.5644 79.6031 37.5644 131.474C37.5644 183.345 79.6137 225.384 131.475 225.384C183.345 225.384 225.385 183.345 225.385 131.474C225.385 79.6031 183.345 37.5639 131.475 37.5639Z" fill="#BABCBD"/>
</svg>
