<svg width="300" height="188" viewBox="0 0 300 188" fill="none" xmlns="http://www.w3.org/2000/svg">
<path d="M290.625 13H109.375C104.2 13 100 17.2 100 22.375C100 27.55 104.2 31.75 109.375 31.75H290.625C295.8 31.75 300 27.55 300 22.375C300 17.2 295.8 13 290.625 13Z" fill="#AAAAAA"/>
<path d="M290.625 50.5H109.375C104.2 50.5 100 54.7 100 59.875C100 65.05 104.2 69.25 109.375 69.25H290.625C295.8 69.25 300 65.05 300 59.875C300 54.7 295.8 50.5 290.625 50.5Z" fill="#AAAAAA"/>
<path d="M290.625 125.5H109.375C104.2 125.5 100 129.7 100 134.875C100 140.05 104.2 144.25 109.375 144.25H290.625C295.8 144.25 300 140.05 300 134.875C300 129.7 295.8 125.5 290.625 125.5Z" fill="#AAAAAA"/>
<path d="M290.625 163H109.375C104.2 163 100 167.2 100 172.375C100 177.55 104.2 181.75 109.375 181.75H290.625C295.8 181.75 300 177.55 300 172.375C300 167.2 295.8 163 290.625 163Z" fill="#AAAAAA"/>
<path d="M37.5 75.5C58.2107 75.5 75 58.7107 75 38C75 17.2893 58.2107 0.5 37.5 0.5C16.7893 0.5 0 17.2893 0 38C0 58.7107 16.7893 75.5 37.5 75.5Z" fill="#AAAAAA"/>
<path d="M37.5 188C58.2107 188 75 171.211 75 150.5C75 129.789 58.2107 113 37.5 113C16.7893 113 0 129.789 0 150.5C0 171.211 16.7893 188 37.5 188Z" fill="#AAAAAA"/>
</svg>
