<svg width="91" height="91" viewBox="0 0 91 91" fill="none" xmlns="http://www.w3.org/2000/svg">
<path d="M0.199951 45.1483C4.94766 49.4882 9.90179 53.6214 14.8559 57.7545C14.1334 64.161 13.6174 70.5674 13.3078 77.0772C19.7068 76.7672 26.2091 76.2505 32.6082 75.5272C36.6334 80.5904 40.8651 85.4469 45.2 90.2C49.5348 85.4469 53.6633 80.487 57.7917 75.5272C64.1908 76.2505 70.5899 76.7672 77.0922 77.0772C76.7825 70.6707 76.2665 64.161 75.544 57.7545C80.4981 53.7247 85.349 49.4882 90.2 45.1483C85.349 40.8085 80.4981 36.6753 75.4408 32.6455C76.1633 26.239 76.6793 19.8326 76.9889 13.3229C70.5899 13.6328 64.0876 14.1495 57.6885 14.8728C53.6633 9.80965 49.4316 4.95317 45.0967 0.200012C40.7619 4.95317 36.6334 9.91298 32.505 14.8728C26.1059 14.1495 19.7068 13.6328 13.2045 13.3229C13.5142 19.7293 14.0302 26.239 14.7527 32.6455C9.90179 36.6753 5.05087 40.8085 0.199951 45.1483ZM36.8399 48.6615C36.8399 48.5582 36.8399 48.5582 36.8399 48.6615C36.8399 48.5582 36.9431 48.5582 36.8399 48.6615C36.9431 48.6615 36.9431 48.6615 36.8399 48.6615ZM36.8399 41.7385C36.8399 41.7385 36.8399 41.6351 36.8399 41.7385C36.9431 41.6351 36.9431 41.7385 36.8399 41.7385C36.8399 41.7385 36.9431 41.7385 36.8399 41.7385ZM41.794 36.882C41.794 36.7787 41.794 36.7787 41.794 36.882C41.794 36.7787 41.794 36.882 41.794 36.882C41.6908 36.882 41.794 36.882 41.794 36.882C41.6908 36.882 41.6908 36.882 41.794 36.882ZM48.6059 36.882C48.7091 36.882 48.7091 36.882 48.6059 36.882C48.7091 36.882 48.6059 36.882 48.6059 36.882C48.6059 36.7787 48.6059 36.882 48.6059 36.882C48.6059 36.7787 48.6059 36.7787 48.6059 36.882ZM53.56 41.7385C53.56 41.7385 53.4568 41.7385 53.56 41.7385C53.4568 41.7385 53.4568 41.6351 53.56 41.7385C53.56 41.7385 53.56 41.6351 53.56 41.7385ZM53.56 48.6615C53.4568 48.6615 53.4568 48.6615 53.56 48.6615C53.4568 48.5582 53.56 48.5582 53.56 48.6615C53.56 48.5582 53.56 48.5582 53.56 48.6615ZM48.6059 53.518C48.6059 53.518 48.6059 53.4147 48.6059 53.518C48.6059 53.4147 48.7091 53.4147 48.6059 53.518C48.7091 53.518 48.7091 53.518 48.6059 53.518ZM41.794 53.518C41.6908 53.518 41.6908 53.518 41.794 53.518C41.6908 53.4147 41.794 53.4147 41.794 53.518C41.794 53.518 41.794 53.4147 41.794 53.518ZM41.2779 46.8016C38.5944 46.4916 35.8078 46.1816 33.1243 45.7683C32.8146 45.5617 32.6082 45.355 32.2986 45.1483C32.6082 44.9417 32.8146 44.735 33.1243 44.5284C35.8078 44.2184 38.5944 43.8051 41.2779 43.4951C39.6266 41.3252 37.872 39.1552 36.2206 36.9853C36.2206 36.6753 36.1174 36.3653 36.1174 35.952C36.427 35.952 36.7367 36.0554 37.1495 36.0554C39.3169 37.7086 41.4844 39.4652 43.6518 41.1185C43.9614 38.4319 44.2711 35.642 44.6839 32.9555C44.8903 32.6455 45.0967 32.4388 45.3032 32.1288C45.5096 32.4388 45.716 32.6455 45.9224 32.9555C46.2321 35.642 46.6449 38.4319 46.9545 41.1185C49.122 39.4652 51.2894 37.7086 53.4568 36.0554C53.7665 36.0554 54.0761 35.952 54.4889 35.952C54.4889 36.262 54.3857 36.572 54.3857 36.9853C52.7344 39.1552 50.9798 41.3252 49.3284 43.4951C52.0119 43.8051 54.7986 44.115 57.4821 44.5284C57.7917 44.735 57.9981 44.9417 58.3078 45.1483C57.9981 45.355 57.7917 45.5617 57.4821 45.7683C54.7986 46.0783 52.0119 46.4916 49.3284 46.8016C50.9798 48.9715 52.7344 51.1415 54.3857 53.3114C54.3857 53.6214 54.4889 53.9314 54.4889 54.3447C54.1793 54.3447 53.8697 54.2413 53.4568 54.2413C51.2894 52.5881 49.122 50.8315 46.9545 49.1782C46.6449 51.8648 46.3353 54.6547 45.9224 57.3412C45.716 57.6512 45.5096 57.8579 45.3032 58.1679C45.0967 57.8579 44.8903 57.6512 44.6839 57.3412C44.3743 54.6547 43.9614 51.8648 43.6518 49.1782C41.4844 50.8315 39.3169 52.5881 37.1495 54.2413C36.8399 54.2413 36.5302 54.3447 36.1174 54.3447C36.1174 54.0347 36.2206 53.7247 36.2206 53.3114C37.9752 51.1415 39.6266 48.9715 41.2779 46.8016ZM26.3123 45.1483C28.4798 46.9049 30.6472 48.5582 32.9178 50.2115C32.505 53.0014 32.1954 55.688 31.8857 58.4779C34.6724 58.1679 37.3559 57.8579 40.1426 57.4446C41.794 59.6145 43.5486 61.8877 45.2 64.0576C46.9545 61.8877 48.6059 59.7178 50.2573 57.4446C53.044 57.8579 55.7275 58.1679 58.5142 58.4779C58.2045 55.688 57.8949 53.0014 57.4821 50.2115C59.6495 48.5582 61.9201 46.8016 64.0876 45.1483C61.9201 43.3917 59.7527 41.7385 57.4821 40.0852C57.8949 37.2953 58.2045 34.6087 58.5142 31.8188C55.7275 32.1288 53.044 32.4388 50.2573 32.8521C48.6059 30.6822 46.8513 28.409 45.2 26.239C43.4454 28.409 41.794 30.5789 40.1426 32.8521C37.3559 32.4388 34.6724 32.1288 31.8857 31.8188C32.1954 34.6087 32.505 37.2953 32.9178 40.0852C30.6472 41.7385 28.4798 43.3917 26.3123 45.1483ZM19.3972 55.8946C15.0623 52.4847 10.7275 48.8682 6.49583 45.1483C10.7275 41.5318 14.9591 37.9153 19.3972 34.4021C18.7779 28.8223 18.2619 23.3458 17.849 17.766C23.4224 18.1793 28.9958 18.696 34.466 19.316C37.872 14.9761 41.4844 10.6363 45.2 6.39978C48.8123 10.6363 52.4247 14.8728 55.9339 19.316C61.5073 18.696 66.9775 18.1793 72.5509 17.766C72.138 23.3458 71.622 28.9256 71.0027 34.4021C75.3376 37.8119 79.6724 41.4285 83.9041 45.1483C79.6724 48.7649 75.4408 52.3814 71.0027 55.8946C71.622 61.4744 72.138 66.9509 72.5509 72.5307C66.9775 72.1173 61.4041 71.6007 55.9339 70.9807C52.5279 75.3206 48.9155 79.6604 45.2 83.8969C41.5876 79.6604 37.9752 75.4239 34.466 70.9807C28.8926 71.6007 23.4224 72.1173 17.849 72.5307C18.2619 66.9509 18.7779 61.3711 19.3972 55.8946Z" fill="#494949"/>
<path d="M13.5142 45.1483C13.5142 46.0783 13.8238 46.9049 14.4431 47.6282C14.4431 47.7316 14.5463 47.7316 14.6495 47.8349C14.7527 47.9382 14.7527 47.9382 14.8559 48.0416C16.4041 49.2815 18.6747 49.2815 20.1197 47.8349C20.8421 47.1116 21.255 46.0783 21.255 45.045C21.255 44.0117 20.8421 42.9784 20.1197 42.2551C18.6747 40.8085 16.4041 40.8085 14.8559 42.0485C14.7527 42.0485 14.7527 42.1518 14.6495 42.2551C14.4431 42.4618 14.4431 42.5651 14.3399 42.6684C13.8238 43.3917 13.5142 44.2184 13.5142 45.1483ZM22.8032 22.7258C22.1839 23.3458 21.771 24.1724 21.6678 25.1024C21.6678 25.2057 21.6678 25.3091 21.6678 25.4124C21.6678 25.5157 21.6678 25.6191 21.6678 25.7224C21.8743 27.6857 23.4224 29.2356 25.4866 29.2356C26.5187 29.2356 27.4476 28.8223 28.2733 28.099C28.9958 27.3757 29.4087 26.3424 29.4087 25.3091C29.4087 23.2425 27.7573 21.6925 25.8995 21.4859C25.7963 21.4859 25.6931 21.4859 25.5899 21.4859C25.4866 21.4859 25.3834 21.4859 25.2802 21.4859C24.2481 21.6925 23.4224 22.1059 22.8032 22.7258ZM45.1999 13.4262C44.271 13.4262 43.4454 13.7362 42.7229 14.3561C42.6197 14.3561 42.6197 14.4595 42.5165 14.5628C42.4132 14.6661 42.4132 14.6661 42.31 14.7695C41.0715 16.3194 41.0715 18.5927 42.5165 20.0393C43.2389 20.7626 44.271 21.1759 45.3032 21.1759C46.3353 21.1759 47.3674 20.7626 48.0898 20.0393C49.5348 18.5927 49.5348 16.3194 48.2963 14.7695C48.2963 14.6661 48.1931 14.6661 48.0898 14.5628C47.9866 14.4595 47.9866 14.4595 47.8834 14.3561C46.9545 13.7362 46.1288 13.4262 45.1999 13.4262ZM67.5967 22.7258C66.9775 22.1059 66.1518 21.6925 65.2229 21.5892C65.1197 21.5892 65.0165 21.5892 64.9132 21.5892C64.81 21.5892 64.7068 21.5892 64.6036 21.5892C62.6426 21.7959 61.0944 23.3458 61.0944 25.4124C61.0944 26.4457 61.5073 27.3757 62.2298 28.2023C62.9522 28.9256 63.9843 29.3389 65.0165 29.3389C67.0807 29.3389 68.6288 27.6857 68.8353 25.8257C68.8353 25.7224 68.8353 25.6191 68.8353 25.5157C68.8353 25.4124 68.8353 25.3091 68.8353 25.2057C68.6288 24.1724 68.216 23.3458 67.5967 22.7258ZM76.8857 45.1483C76.8857 44.2184 76.5761 43.3917 75.9568 42.6684C75.9568 42.5651 75.8536 42.5651 75.7504 42.4618C75.6472 42.3584 75.6472 42.3584 75.544 42.2551C73.9958 41.0152 71.7252 41.0152 70.2802 42.4618C69.5577 43.1851 69.1449 44.2184 69.1449 45.2517C69.1449 46.285 69.5577 47.3183 70.2802 48.0416C71.7252 49.4882 73.9958 49.4882 75.544 48.2482C75.6472 48.2482 75.6472 48.1449 75.7504 48.0416C75.8536 47.9382 75.8536 47.9382 75.9568 47.8349C76.5761 47.0083 76.8857 46.0783 76.8857 45.1483ZM67.5967 67.5708C68.216 66.9509 68.6288 66.1242 68.7321 65.1943C68.7321 65.0909 68.7321 64.9876 68.7321 64.8843C68.7321 64.7809 68.7321 64.6776 68.7321 64.5743C68.5256 62.611 66.9775 61.0611 64.9132 61.0611C63.8811 61.0611 62.9522 61.4744 62.1265 62.1977C61.4041 62.921 60.9912 63.9543 60.9912 64.9876C60.9912 67.0542 62.6426 68.6041 64.5004 68.8108C64.6036 68.8108 64.7068 68.8108 64.81 68.8108C64.9132 68.8108 65.0165 68.8108 65.1197 68.8108C66.1518 68.7075 66.9775 68.2942 67.5967 67.5708ZM45.1999 76.9738C46.1288 76.9738 46.9545 76.6638 47.677 76.0439C47.7802 76.0439 47.7802 75.9405 47.8834 75.8372C47.9866 75.7339 47.9866 75.7339 48.0898 75.6305C49.3284 74.0806 49.3284 71.8074 47.8834 70.3607C47.161 69.6374 46.1288 69.2241 45.0967 69.2241C44.0646 69.2241 43.0325 69.6374 42.31 70.3607C40.8651 71.8074 40.8651 74.0806 42.1036 75.6305C42.1036 75.7339 42.2068 75.7339 42.31 75.8372C42.4132 75.9405 42.4132 75.9405 42.5165 76.0439C43.4454 76.5605 44.271 76.8705 45.1999 76.9738ZM22.8032 67.5708C23.4224 68.1908 24.2481 68.6041 25.177 68.7075C25.2802 68.7075 25.3834 68.7075 25.4866 68.7075C25.5898 68.7075 25.6931 68.7075 25.7963 68.7075C27.7573 68.5008 29.3054 66.9509 29.3054 64.8843C29.3054 63.851 28.8926 62.921 28.1701 62.0944C27.4477 61.3711 26.4155 60.9578 25.3834 60.9578C23.3192 60.9578 21.771 62.611 21.5646 64.471C21.5646 64.5743 21.5646 64.6776 21.5646 64.7809C21.5646 64.8843 21.5646 64.9876 21.5646 65.0909C21.771 66.1242 22.1839 66.9509 22.8032 67.5708ZM18.8811 45.1483C18.7779 46.285 17.333 47.3183 16.1976 46.285C15.888 45.975 15.7848 45.5617 15.7848 45.1483C15.7848 44.8384 15.888 44.425 16.1976 44.0117C17.333 42.9784 18.6747 44.0117 18.8811 45.1483ZM26.622 26.549C25.6931 27.2723 24.0417 26.9623 23.9385 25.4124C23.9385 24.8958 24.1449 24.5858 24.4545 24.2758C24.6609 23.9658 25.0738 23.8625 25.5899 23.7591C27.0348 23.9658 27.2412 25.6191 26.622 26.549ZM45.1999 18.7993C44.0646 18.696 43.0325 17.2494 44.0646 16.1127C44.3743 15.8028 44.7871 15.6994 45.1999 15.6994C45.5096 15.6994 45.9224 15.8028 46.3353 16.1127C47.3674 17.2494 46.3353 18.696 45.1999 18.7993ZM63.7779 26.549C63.0554 25.6191 63.3651 23.9658 64.9132 23.8625C65.4293 23.8625 65.7389 24.0691 66.0486 24.3791C66.3582 24.5858 66.4614 24.9991 66.5646 25.5157C66.4614 26.9623 64.7068 27.169 63.7779 26.549ZM71.5187 45.1483C71.622 44.0117 73.0669 42.9784 74.2022 44.0117C74.5119 44.3217 74.6151 44.735 74.6151 45.1483C74.6151 45.4583 74.5119 45.8716 74.2022 46.285C73.0669 47.3183 71.7252 46.285 71.5187 45.1483ZM63.7779 63.851C64.7068 63.1277 66.3582 63.4377 66.4614 64.9876C66.4614 65.5043 66.255 65.8142 65.9454 66.1242C65.7389 66.4342 65.3261 66.5375 64.81 66.6409C63.3651 66.4342 63.1587 64.6776 63.7779 63.851ZM45.1999 71.4974C46.3353 71.6007 47.3674 73.0473 46.3353 74.1839C46.0256 74.4939 45.6128 74.5973 45.1999 74.5973C44.8903 74.5973 44.4775 74.4939 44.0646 74.1839C43.0325 73.0473 44.0646 71.704 45.1999 71.4974ZM26.622 63.851C27.3444 64.7809 27.0348 66.4342 25.4866 66.5376C24.9706 66.5376 24.6609 66.3309 24.3513 66.0209C24.0417 65.8142 23.9385 65.4009 23.8353 64.8843C23.9385 63.3343 25.6931 63.1277 26.622 63.851Z" fill="#494949"/>
</svg>
